<svg version="1.1" id="Layer_1" xmlns="http://www.w3.org/2000/svg" xmlns:xlink="http://www.w3.org/1999/xlink" x="0px" y="0px"
	 width="100%" viewBox="0 0 144 166" enable-background="new 0 0 144 166" xml:space="preserve">
<path fill="#E9F0FA" opacity="1.000000" stroke="none" 
	d="
M145.000000,64.000000 
	C145.000000,98.666664 145.000000,132.833328 145.000000,167.000000 
	C97.000000,167.000000 49.000000,167.000000 1.000000,167.000000 
	C1.000000,111.666664 1.000000,56.333332 1.000000,1.000000 
	C49.000000,1.000000 97.000000,1.000000 145.000000,1.000000 
	C145.000000,21.833334 145.000000,42.666668 145.000000,64.000000 
M78.895386,103.927109 
	C78.868195,108.534492 78.626755,113.157196 78.954453,117.739204 
	C79.043800,118.988571 80.845345,120.115494 81.861107,121.298607 
	C82.879501,120.107506 84.352341,119.063217 84.797005,117.686760 
	C85.310112,116.098465 84.916283,114.217178 84.916283,112.298218 
	C86.741852,112.440155 87.862869,112.527313 89.599068,112.852432 
	C96.309799,111.322975 99.437508,107.176720 98.570610,100.959290 
	C97.726280,94.903648 93.887276,91.996544 86.216545,92.036407 
	C78.780136,93.213547 78.773666,93.213615 78.849831,100.568848 
	C78.858253,101.381683 78.993095,102.193207 78.895386,103.927109 
M85.660225,151.352203 
	C94.263840,155.484238 102.895805,156.100128 111.592400,151.610199 
	C103.134987,146.116623 94.072327,149.169006 84.467888,149.323868 
	C83.679253,148.576080 82.890625,147.828308 82.819023,147.071854 
	C90.035690,142.360687 96.480125,137.156494 95.977570,126.089973 
	C86.666031,130.886505 83.929871,139.103394 80.145691,147.314636 
	C76.215675,148.970917 72.285660,150.627197 68.393997,152.267319 
	C72.670746,153.383423 76.642456,154.419922 80.614174,155.456406 
	C81.004890,155.057053 81.395599,154.657684 81.786308,154.258331 
	C80.126404,153.628342 78.466492,152.998352 76.806580,152.368362 
	C77.119125,151.899216 77.431671,151.430054 77.744217,150.960892 
	C80.170158,150.960892 82.596092,150.960892 85.660225,151.352203 
M18.378605,58.297440 
	C15.044538,62.562675 13.827952,67.488014 13.077869,72.558777 
	C13.699405,72.794044 14.320940,73.029320 14.942475,73.264587 
	C16.556116,68.799225 18.169758,64.333855 20.265812,59.374229 
	C28.038088,50.645847 35.810364,41.917465 43.582638,33.189083 
	C43.238354,32.785427 42.894070,32.381775 42.549786,31.978119 
	C41.510330,32.206333 40.131504,32.086548 39.484653,32.717350 
	C33.884075,38.179016 28.187189,43.574680 23.021635,49.433201 
	C21.017221,51.706501 20.302286,55.116756 18.378605,58.297440 
M140.482635,76.328072 
	C140.088318,70.945122 139.977539,65.516342 139.119522,60.208344 
	C138.875671,58.699631 136.456558,57.542526 135.035004,56.224178 
	C134.699341,57.999043 133.855316,59.855347 134.124115,61.533386 
	C134.905441,66.410942 136.132660,71.217072 137.040878,76.828453 
	C135.791245,80.588318 134.541611,84.348183 133.291977,88.108040 
	C132.735153,88.015755 132.178314,87.923462 131.621490,87.831169 
	C130.932526,86.798477 130.243576,85.765785 129.323486,83.982590 
	C127.301903,77.266876 125.280319,70.551170 123.258743,63.835453 
	C122.581230,63.826527 121.903717,63.817596 121.226212,63.808670 
	C120.454765,65.960533 119.211197,68.067162 118.999901,70.272690 
	C118.351585,77.039833 121.643578,82.420753 125.967979,88.035149 
	C128.819077,92.722992 132.684250,97.002708 131.305328,103.036987 
	C130.411240,101.502205 129.553360,99.944885 128.615356,98.437424 
	C126.785568,95.496727 125.081497,92.449875 122.952003,89.740417 
	C122.304588,88.916672 120.432312,89.055595 119.121017,88.753609 
	C119.298172,90.207664 119.091599,91.875954 119.752586,93.059891 
	C120.525711,94.444664 122.285103,95.248108 123.209953,96.585075 
	C125.329651,99.649330 127.202179,102.884583 129.047089,106.854454 
	C129.259247,107.898727 129.471420,108.943008 129.683578,109.987282 
	C130.603577,109.476952 131.845169,109.185814 132.374466,108.409203 
	C133.378250,106.936417 134.313171,105.258133 134.681946,103.537735 
	C136.572571,94.717499 138.273773,85.856659 140.482635,76.328072 
M125.053360,61.704441 
	C126.828972,65.022560 128.604584,68.340675 130.380188,71.658798 
	C130.904938,71.466370 131.429672,71.273941 131.954407,71.081512 
	C130.851913,67.680237 129.749435,64.278954 128.312363,60.205013 
	C127.701859,59.230125 126.922272,58.321968 126.507065,57.269997 
	C122.477150,47.059807 115.688057,39.075069 106.631470,33.063507 
	C105.147522,32.078495 102.802376,32.390900 100.855255,32.103668 
	C101.618759,33.815189 102.349525,35.542633 103.168739,37.227062 
	C103.373817,37.648758 103.883217,37.913971 104.219238,38.281723 
	C111.136444,45.852177 118.048790,53.427071 125.053360,61.704441 
M6.149285,81.010818 
	C7.096115,86.664124 7.816947,92.367989 9.066397,97.953598 
	C9.951926,101.912323 11.551824,105.711250 12.832849,109.581497 
	C13.501473,109.489807 14.170099,109.398117 14.838725,109.306427 
	C15.144039,108.219772 15.449354,107.133118 16.120743,105.435387 
	C19.123110,101.736610 22.267260,98.140442 25.055916,94.287010 
	C26.125423,92.809135 26.383636,90.744156 27.011538,88.946701 
	C25.238430,89.603668 22.725805,89.739449 21.828007,91.013321 
	C18.891512,95.179863 16.543003,99.760796 13.379417,103.626495 
	C11.779925,95.589012 17.224617,90.284286 21.356390,84.854874 
	C24.824196,80.297958 25.776613,75.457336 25.859980,70.218826 
	C25.882179,68.823868 24.373009,67.404526 23.566923,65.996384 
	C22.344130,67.167915 20.547203,68.124374 20.011868,69.553429 
	C18.685518,73.094070 18.068462,76.893456 16.905254,80.504761 
	C16.200399,82.693054 15.008767,84.724564 14.035827,86.826508 
	C12.436228,85.209961 10.822724,83.606659 9.255121,81.959656 
	C9.065247,81.760162 9.123016,81.324966 9.143700,80.079559 
	C9.624106,72.504425 10.104512,64.929291 10.643445,56.431313 
	C4.685798,61.259842 3.105179,71.721375 6.149285,81.010818 
M87.740906,25.589432 
	C88.136040,23.392467 88.531174,21.195503 89.143898,18.140724 
	C88.199341,17.000517 87.313568,14.929062 86.301079,14.865155 
	C76.896194,14.271530 66.153099,24.723339 66.076637,34.113098 
	C66.054726,36.803837 66.966156,38.005875 69.825996,38.069714 
	C76.986298,38.229538 83.951988,33.543346 87.740906,25.589432 
M61.102905,102.519699 
	C59.005062,101.262604 56.907219,100.005508 54.809376,98.748413 
	C56.167385,97.471359 57.218929,97.341202 58.242661,97.095284 
	C59.893059,96.698830 61.525124,96.226059 63.164932,95.785522 
	C61.619671,94.614563 60.221661,93.059845 58.483070,92.392715 
	C57.064056,91.848221 54.833984,91.765259 53.682102,92.542542 
	C51.676666,93.895821 49.069904,95.954262 48.872208,97.932632 
	C48.681767,99.838409 50.936195,102.307587 52.649902,103.983917 
	C54.028915,105.332855 56.204296,105.867676 58.026329,106.763725 
	C57.917694,107.225632 57.809059,107.687538 57.700428,108.149445 
	C54.484379,108.149445 51.268330,108.149445 48.052284,108.149445 
	C47.833794,108.716812 47.615307,109.284180 47.396820,109.851540 
	C49.245205,110.917465 51.201488,113.008438 52.918652,112.827682 
	C56.113892,112.491356 59.504631,111.305695 62.104725,109.469330 
	C63.032520,108.814072 61.904747,105.248337 61.102905,102.519699 
M45.203144,78.179398 
	C44.753906,76.787834 44.304668,75.396271 43.473221,72.820778 
	C47.219044,75.610954 49.764854,77.713959 52.535633,79.459961 
	C53.516190,80.077858 55.349686,80.334885 56.228695,79.810120 
	C56.943974,79.383095 57.308968,77.382309 56.974483,76.358749 
	C55.685928,72.415649 54.182384,68.525940 52.454754,64.755737 
	C52.051918,63.876637 50.453026,63.545601 49.404449,62.962399 
	C49.158188,64.228516 48.474384,65.605278 48.760517,66.736755 
	C49.288853,68.826012 50.385960,70.771431 51.482109,73.326996 
	C45.927315,72.558220 43.656513,65.779251 36.833355,68.899742 
	C41.491367,73.286392 39.111004,81.639069 47.531422,83.382660 
	C46.847668,81.834656 46.163914,80.286644 45.203144,78.179398 
M55.372780,6.490044 
	C54.819828,6.788491 53.962837,6.951257 53.759937,7.405922 
	C51.101723,13.362409 57.021915,23.385944 63.610157,23.678072 
	C64.721443,23.727350 66.809929,21.568897 66.951996,20.267328 
	C67.622734,14.121928 63.623615,9.370997 55.372780,6.490044 
M60.375759,27.199942 
	C56.859627,23.246515 52.684101,21.214983 47.136139,22.235558 
	C46.997269,27.600185 48.923176,31.807957 52.889202,34.192680 
	C55.616982,35.832863 59.348679,35.803444 62.631664,36.520264 
	C62.029869,33.605904 61.428074,30.691542 60.375759,27.199942 
M116.108398,110.832047 
	C115.456070,117.186546 114.803741,123.541054 114.123009,130.172287 
	C122.922729,123.066170 126.320595,109.560257 120.489990,102.160011 
	C118.951340,105.056961 117.627769,107.548950 116.108398,110.832047 
M57.073013,152.637573 
	C58.799889,151.974121 60.526764,151.310669 62.813122,150.432281 
	C50.123814,146.090591 38.854427,146.829575 34.591564,152.302414 
	C41.812305,157.114975 49.054932,155.513504 57.073013,152.637573 
M30.899178,120.578903 
	C30.465126,114.198425 30.168259,107.768593 25.005592,102.690437 
	C19.933191,110.241669 23.252541,124.093483 30.914671,129.380722 
	C30.914671,126.755898 30.914671,124.131073 30.899178,120.578903 
M139.260605,123.692833 
	C130.283768,122.564064 123.510361,126.896523 116.168663,132.648575 
	C124.693649,134.572861 131.632401,133.606934 137.665070,128.722427 
	C138.879242,127.739334 139.173569,125.620132 139.260605,123.692833 
M19.252905,133.361267 
	C22.411789,133.361267 25.570675,133.361267 29.498163,133.361267 
	C22.368324,125.309204 12.331659,121.910660 5.573213,124.949326 
	C8.436697,130.095581 13.280395,131.874954 19.252905,133.361267 
M58.056267,132.483276 
	C55.767883,130.589005 53.479496,128.694733 50.716724,126.407776 
	C49.132710,135.222382 54.568413,143.082550 65.894325,147.918106 
	C63.422012,142.969376 60.949699,138.020630 58.056267,132.483276 
M29.287884,138.105209 
	C25.918890,138.584549 22.549896,139.063889 18.381607,139.656967 
	C23.975964,146.247543 34.160053,147.321899 43.431828,142.145798 
	C39.007141,140.823502 34.582458,139.501205 29.287884,138.105209 
M37.788113,130.488266 
	C40.726147,134.484161 43.664181,138.480057 46.602215,142.475952 
	C46.795452,129.755783 42.362606,120.664108 35.672783,118.998177 
	C36.327679,122.879326 36.908596,126.322029 37.788113,130.488266 
M103.113419,124.713211 
	C101.491302,129.662048 99.869194,134.610870 98.247078,139.559692 
	C107.487259,135.732361 112.080750,125.321541 108.554962,117.942543 
	C106.684029,120.189377 105.078514,122.117470 103.113419,124.713211 
M125.599220,140.108200 
	C119.774078,136.983978 107.650734,138.719040 102.384293,144.132248 
	C107.032661,144.745026 111.168663,146.133560 115.010880,145.558640 
	C118.822227,144.988327 122.337692,142.440643 125.599220,140.108200 
M73.955673,107.173080 
	C73.916893,103.353188 74.124359,99.504784 73.687386,95.730995 
	C73.558426,94.617249 71.608856,93.714302 70.493614,92.714760 
	C69.591301,93.826096 67.974579,94.897552 67.909920,96.055664 
	C67.624725,101.164108 67.786682,106.297523 67.786682,111.309685 
	C71.649483,112.837791 74.545235,113.417854 73.955673,107.173080 
M77.309364,76.195427 
	C79.252670,76.329918 81.195976,76.464401 83.139282,76.598892 
	C78.844849,71.199997 78.970802,69.733383 84.010452,65.336365 
	C82.409973,63.230022 80.809494,61.123676 79.209015,59.017330 
	C77.381912,60.828579 75.554817,62.639828 74.516136,63.669495 
	C75.389580,68.368729 76.060356,71.977615 77.309364,76.195427 
M75.029091,2.694358 
	C70.767899,4.852554 68.439110,8.342233 68.651321,13.089952 
	C68.705681,14.306067 70.320702,15.452423 71.218719,16.630825 
	C73.509804,14.406469 76.373947,12.516977 77.926064,9.860811 
	C79.392174,7.351839 79.400795,4.061917 75.029091,2.694358 
M41.423065,48.782066 
	C44.384579,47.762611 47.452904,46.965870 50.258152,45.620564 
	C51.481640,45.033817 52.165886,43.322636 53.095024,42.122108 
	C51.704739,41.656044 50.134502,40.518230 48.953796,40.834518 
	C42.043697,42.685604 36.135349,46.308144 31.173018,51.351120 
	C31.373976,51.771320 31.574934,52.191525 31.775892,52.611725 
	C34.752216,51.433395 37.728542,50.255062 41.423065,48.782066 
M70.862442,67.173073 
	C70.140327,66.049805 69.418213,64.926529 68.419785,63.373451 
	C66.284309,67.560410 70.380821,72.543365 64.913483,75.285904 
	C64.296074,73.636810 64.049782,72.471222 63.462814,71.514687 
	C62.158588,69.389290 64.260269,65.358665 59.838680,64.990387 
	C59.758385,67.912445 59.665791,70.834290 59.616264,73.756866 
	C59.611153,74.058365 59.787209,74.550560 60.006798,74.639603 
	C62.559200,75.674614 65.110260,77.361641 67.713249,77.456207 
	C70.847740,77.570091 71.369743,74.747139 71.112717,71.992935 
	C70.989761,70.675400 71.053345,69.340454 70.862442,67.173073 
M105.711807,49.689709 
	C107.917786,50.663261 110.123772,51.636814 112.329750,52.610363 
	C108.414665,46.002747 102.866447,42.091949 95.589691,40.988861 
	C94.501038,40.823833 93.260963,41.657639 92.090935,42.029373 
	C92.847778,43.142025 93.359024,44.784534 94.406548,45.270096 
	C97.842163,46.862637 101.472618,48.034840 105.711807,49.689709 
M94.764549,34.147053 
	C95.285225,31.922785 95.805893,29.698519 96.326569,27.474249 
	C93.828949,28.196747 90.762367,28.269346 88.990356,29.820675 
	C87.140320,31.440310 86.536842,34.483852 85.388405,36.904903 
	C85.955231,37.365734 86.522057,37.826565 87.088882,38.287399 
	C89.478401,37.091084 91.867928,35.894768 94.764549,34.147053 
M87.208633,68.754105 
	C86.867096,70.030602 86.263214,71.303871 86.247437,72.584389 
	C86.225494,74.365204 86.644226,76.151443 86.874329,77.935356 
	C88.137169,76.573021 90.047295,75.402596 90.520592,73.806183 
	C91.361656,70.969315 92.454926,69.415787 95.638756,69.940292 
	C96.208015,70.034081 96.924576,69.233803 97.606476,68.826424 
	C93.984032,64.260315 90.241905,64.034035 87.208633,68.754105 
M96.835381,80.290497 
	C97.824585,80.696846 99.661858,81.497177 99.682182,81.453423 
	C101.257477,78.062538 102.751572,74.628273 104.056511,71.124573 
	C104.221207,70.682388 103.319847,69.299339 102.938187,69.309616 
	C102.119812,69.331642 100.880791,69.774124 100.584503,70.405823 
	C99.195740,73.366753 98.068291,76.450233 96.835381,80.290497 
M58.818092,160.937820 
	C57.073212,160.203369 55.328331,159.468918 53.583450,158.734467 
	C53.043415,160.178574 51.937180,161.710587 52.143429,163.038803 
	C52.306892,164.091492 54.718578,165.852814 55.028912,165.645813 
	C56.547668,164.632736 57.696880,163.065643 58.818092,160.937820 
M88.972969,158.528717 
	C88.444893,160.330490 87.629784,162.125473 87.586967,163.938705 
	C87.576012,164.402359 90.275742,165.617538 91.249985,165.241974 
	C92.452301,164.778503 94.161583,162.336075 93.890511,161.932831 
	C92.886909,160.439957 91.158409,159.434418 88.972969,158.528717 
M71.990303,83.491608 
	C70.428429,84.505592 68.765007,85.409668 67.416939,86.655090 
	C67.220474,86.836586 68.372154,89.367950 69.177597,89.544327 
	C70.545303,89.843826 72.133911,89.134476 73.629677,88.849121 
	C73.299545,87.151093 72.969414,85.453064 71.990303,83.491608 
M138.713745,110.979271 
	C138.001617,112.576538 137.050781,114.130966 136.750809,115.802216 
	C136.678818,116.203346 138.832932,117.558922 139.847519,117.444984 
	C140.872986,117.329803 142.691269,115.500916 142.540298,115.175667 
	C141.818527,113.620827 140.545746,112.321770 138.713745,110.979271 
M5.608023,111.240967 
	C4.871920,112.824852 3.896013,114.361786 3.570205,116.025986 
	C3.489876,116.436302 5.577136,117.827568 6.573525,117.736374 
	C7.580417,117.644211 9.399750,115.889305 9.250431,115.526421 
	C8.600289,113.946426 7.362370,112.608299 5.608023,111.240967 
M127.256897,50.225887 
	C128.936798,50.634159 130.608475,51.193050 132.305588,51.285503 
	C132.555176,51.299099 133.425690,48.930828 133.102341,47.969582 
	C132.762756,46.960102 131.332855,46.317390 130.379440,45.514393 
	C129.265503,46.843098 128.151550,48.171803 127.256897,50.225887 
M16.596235,45.866741 
	C15.061108,46.526096 13.367118,46.983688 12.098989,47.982155 
	C11.768797,48.242134 12.442417,50.776196 13.236009,51.215012 
	C14.261016,51.781788 16.923532,51.602303 17.040205,51.204414 
	C17.490498,49.668797 17.207991,47.918297 16.596235,45.866741 
M132.574600,116.586533 
	C130.322388,115.365021 128.484985,115.816948 128.220520,118.444923 
	C128.121063,119.433250 129.688019,121.513191 130.463974,121.497986 
	C133.132172,121.445686 134.293533,119.826073 132.574600,116.586533 
z"/>
<path fill="#7E325A" opacity="1.000000" stroke="none" 
	d="
M87.199280,26.075619 
	C83.951988,33.543346 76.986298,38.229538 69.825996,38.069714 
	C66.966156,38.005875 66.054726,36.803837 66.076637,34.113098 
	C66.153099,24.723339 76.896194,14.271530 86.301079,14.865155 
	C87.313568,14.929062 88.199341,17.000517 88.670280,18.576197 
	C86.364288,20.412066 84.531914,21.812464 82.023453,23.729561 
	C84.632607,24.912216 85.915939,25.493917 87.199280,26.075619 
z"/>
<path fill="#728B3D" opacity="1.000000" stroke="none" 
	d="
M9.066010,80.999008 
	C9.123016,81.324966 9.065247,81.760162 9.255121,81.959656 
	C10.822724,83.606659 12.436228,85.209961 14.035828,86.826508 
	C15.008767,84.724564 16.200399,82.693054 16.905254,80.504761 
	C18.068462,76.893456 18.685518,73.094070 20.011868,69.553429 
	C20.547203,68.124374 22.344130,67.167915 23.566923,65.996384 
	C24.373009,67.404526 25.882179,68.823868 25.859980,70.218826 
	C25.776613,75.457336 24.824196,80.297958 21.356390,84.854874 
	C17.224617,90.284286 11.779925,95.589012 13.705105,104.193924 
	C14.605416,105.189728 15.180042,105.618095 15.754667,106.046463 
	C15.449354,107.133118 15.144039,108.219772 14.838725,109.306427 
	C14.170099,109.398117 13.501473,109.489807 12.832849,109.581497 
	C11.551824,105.711250 9.951926,101.912323 9.066397,97.953598 
	C7.816947,92.367989 7.096115,86.664124 6.505102,80.617661 
	C7.595949,80.482666 8.330979,80.740837 9.066010,80.999008 
z"/>
<path fill="#753258" opacity="1.000000" stroke="none" 
	d="
M61.409073,102.765396 
	C61.904747,105.248337 63.032520,108.814072 62.104725,109.469330 
	C59.504631,111.305695 56.113892,112.491356 52.918652,112.827682 
	C51.201488,113.008438 49.245205,110.917465 47.396820,109.851540 
	C47.615307,109.284180 47.833794,108.716812 48.052284,108.149445 
	C51.268330,108.149445 54.484379,108.149445 57.700428,108.149445 
	C57.809059,107.687538 57.917694,107.225632 58.026329,106.763725 
	C56.204296,105.867676 54.028915,105.332855 52.649902,103.983917 
	C50.936195,102.307587 48.681767,99.838409 48.872208,97.932632 
	C49.069904,95.954262 51.676666,93.895821 53.682102,92.542542 
	C54.833984,91.765259 57.064056,91.848221 58.483070,92.392715 
	C60.221661,93.059845 61.619671,94.614563 63.164932,95.785522 
	C61.525124,96.226059 59.893059,96.698830 58.242661,97.095284 
	C57.218929,97.341202 56.167385,97.471359 54.809376,98.748413 
	C56.907219,100.005508 59.005062,101.262604 61.409073,102.765396 
z"/>
<path fill="#A4B84B" opacity="1.000000" stroke="none" 
	d="
M124.962105,61.001083 
	C118.048790,53.427071 111.136444,45.852177 104.219238,38.281723 
	C103.883217,37.913971 103.373817,37.648758 103.168739,37.227062 
	C102.349525,35.542633 101.618759,33.815189 100.855255,32.103668 
	C102.802376,32.390900 105.147522,32.078495 106.631470,33.063507 
	C115.688057,39.075069 122.477150,47.059807 126.507065,57.269997 
	C126.922272,58.321968 127.701859,59.230125 128.016510,60.574020 
	C126.801147,60.962383 125.881622,60.981731 124.962105,61.001083 
z"/>
<path fill="#8FA63D" opacity="1.000000" stroke="none" 
	d="
M45.341652,78.459015 
	C46.163914,80.286644 46.847668,81.834656 47.531422,83.382660 
	C39.111004,81.639069 41.491367,73.286392 36.833355,68.899742 
	C43.656513,65.779251 45.927315,72.558220 51.482109,73.326996 
	C50.385960,70.771431 49.288853,68.826012 48.760517,66.736755 
	C48.474384,65.605278 49.158188,64.228516 49.404449,62.962399 
	C50.453026,63.545601 52.051918,63.876637 52.454754,64.755737 
	C54.182384,68.525940 55.685928,72.415649 56.974483,76.358749 
	C57.308968,77.382309 56.943974,79.383095 56.228695,79.810120 
	C55.349686,80.334885 53.516190,80.077858 52.535633,79.459961 
	C49.764854,77.713959 47.219044,75.610954 43.473221,72.820778 
	C44.304668,75.396271 44.753906,76.787834 45.341652,78.459015 
z"/>
<path fill="#6F8950" opacity="1.000000" stroke="none" 
	d="
M132.031296,103.100792 
	C132.684250,97.002708 128.819077,92.722992 126.089531,87.380478 
	C127.325592,86.061569 128.440109,85.397339 129.554611,84.733093 
	C130.243576,85.765785 130.932526,86.798477 131.621490,87.831169 
	C132.178314,87.923462 132.735153,88.015755 133.291977,88.108040 
	C134.541611,84.348183 135.791245,80.588318 137.416565,76.463760 
	C138.541901,76.402725 139.291550,76.706367 140.041183,77.010010 
	C138.273773,85.856659 136.572571,94.717499 134.681946,103.537735 
	C134.313171,105.258133 133.378250,106.936417 132.374466,108.409203 
	C131.845169,109.185814 130.603577,109.476952 129.683578,109.987282 
	C129.471420,108.943008 129.259247,107.898727 129.432846,106.394257 
	C130.556168,104.989639 131.293732,104.045219 132.031296,103.100792 
z"/>
<path fill="#A3B54D" opacity="1.000000" stroke="none" 
	d="
M55.731499,6.557738 
	C63.623615,9.370997 67.622734,14.121928 66.951996,20.267328 
	C66.809929,21.568897 64.721443,23.727350 63.610157,23.678072 
	C57.021915,23.385944 51.101723,13.362409 53.759937,7.405922 
	C53.962837,6.951257 54.819828,6.788491 55.731499,6.557738 
z"/>
<path fill="#7D3D66" opacity="1.000000" stroke="none" 
	d="
M60.601021,27.488562 
	C61.428074,30.691542 62.029869,33.605904 62.631664,36.520264 
	C59.348679,35.803444 55.616982,35.832863 52.889202,34.192680 
	C48.923176,31.807957 46.997269,27.600185 47.136139,22.235558 
	C52.684101,21.214983 56.859627,23.246515 60.601021,27.488562 
z"/>
<path fill="#633D63" opacity="1.000000" stroke="none" 
	d="
M116.206299,110.436493 
	C117.627769,107.548950 118.951340,105.056961 120.489990,102.160011 
	C126.320595,109.560257 122.922729,123.066170 114.123009,130.172287 
	C114.803741,123.541054 115.456070,117.186546 116.206299,110.436493 
z"/>
<path fill="#6C3B63" opacity="1.000000" stroke="none" 
	d="
M56.707458,152.759491 
	C49.054932,155.513504 41.812305,157.114975 34.591564,152.302414 
	C38.854427,146.829575 50.123814,146.090591 62.813122,150.432281 
	C60.526764,151.310669 58.799889,151.974121 56.707458,152.759491 
z"/>
<path fill="#703D64" opacity="1.000000" stroke="none" 
	d="
M30.906925,121.042580 
	C30.914671,124.131073 30.914671,126.755898 30.918255,129.380768 
	C23.252541,124.093483 19.933191,110.241669 25.005592,102.690437 
	C30.168259,107.768593 30.465126,114.198425 30.906925,121.042580 
z"/>
<path fill="#593661" opacity="1.000000" stroke="none" 
	d="
M139.576294,123.858780 
	C139.173569,125.620132 138.879242,127.739334 137.665070,128.722427 
	C131.632401,133.606934 124.693649,134.572861 116.168663,132.648575 
	C123.510361,126.896523 130.283768,122.564064 139.576294,123.858780 
z"/>
<path fill="#79395D" opacity="1.000000" stroke="none" 
	d="
M87.007355,92.202965 
	C93.887276,91.996544 97.726280,94.903648 98.570610,100.959290 
	C99.437508,107.176720 96.309799,111.322975 89.304382,112.253052 
	C89.008736,110.392387 89.007767,109.131096 89.297363,107.657516 
	C90.379150,105.131546 92.139107,102.578011 91.645065,100.582527 
	C91.271713,99.074570 88.017982,98.279739 86.065010,96.803085 
	C86.391670,95.026749 86.699516,93.614853 87.007355,92.202965 
z"/>
<path fill="#713C64" opacity="1.000000" stroke="none" 
	d="
M18.851007,133.267303 
	C13.280395,131.874954 8.436697,130.095581 5.573213,124.949326 
	C12.331659,121.910660 22.368324,125.309204 29.498163,133.361267 
	C25.570675,133.361267 22.411789,133.361267 18.851007,133.267303 
z"/>
<path fill="#9FB63F" opacity="1.000000" stroke="none" 
	d="
M18.999941,58.009083 
	C20.302286,55.116756 21.017221,51.706501 23.021635,49.433201 
	C28.187189,43.574680 33.884075,38.179016 39.484653,32.717350 
	C40.131504,32.086548 41.510330,32.206333 42.549786,31.978119 
	C42.894070,32.381775 43.238354,32.785427 43.582638,33.189083 
	C35.810364,41.917465 28.038088,50.645847 19.836842,59.442131 
	C19.271894,59.009720 19.135918,58.509399 18.999941,58.009083 
z"/>
<path fill="#683862" opacity="1.000000" stroke="none" 
	d="
M58.266827,132.777588 
	C60.949699,138.020630 63.422012,142.969376 65.894325,147.918106 
	C54.568413,143.082550 49.132710,135.222382 50.716724,126.407776 
	C53.479496,128.694733 55.767883,130.589005 58.266827,132.777588 
z"/>
<path fill="#7A9150" opacity="1.000000" stroke="none" 
	d="
M129.439056,84.357849 
	C128.440109,85.397339 127.325592,86.061569 126.000298,87.053902 
	C121.643578,82.420753 118.351585,77.039833 118.999901,70.272690 
	C119.211197,68.067162 120.454765,65.960533 121.226212,63.808670 
	C121.903717,63.817596 122.581230,63.826527 123.258743,63.835453 
	C125.280319,70.551170 127.301903,77.266876 129.439056,84.357849 
z"/>
<path fill="#72426C" opacity="1.000000" stroke="none" 
	d="
M29.722830,138.142059 
	C34.582458,139.501205 39.007141,140.823502 43.431828,142.145798 
	C34.160053,147.321899 23.975964,146.247543 18.381607,139.656967 
	C22.549896,139.063889 25.918890,138.584549 29.722830,138.142059 
z"/>
<path fill="#6E3E68" opacity="1.000000" stroke="none" 
	d="
M37.638809,130.126495 
	C36.908596,126.322029 36.327679,122.879326 35.672783,118.998177 
	C42.362606,120.664108 46.795452,129.755783 46.602215,142.475952 
	C43.664181,138.480057 40.726147,134.484161 37.638809,130.126495 
z"/>
<path fill="#562E59" opacity="1.000000" stroke="none" 
	d="
M80.760117,146.997284 
	C83.929871,139.103394 86.666031,130.886505 95.977570,126.089973 
	C96.480125,137.156494 90.035690,142.360687 82.127686,147.012665 
	C81.210930,146.968094 80.985527,146.982681 80.760117,146.997284 
z"/>
<path fill="#58325C" opacity="1.000000" stroke="none" 
	d="
M85.202660,149.611481 
	C94.072327,149.169006 103.134987,146.116623 111.592400,151.610199 
	C102.895805,156.100128 94.263840,155.484238 85.348038,150.928467 
	C85.149826,150.217880 85.205429,149.920135 85.202660,149.611481 
z"/>
<path fill="#583360" opacity="1.000000" stroke="none" 
	d="
M103.293213,124.379387 
	C105.078514,122.117470 106.684029,120.189377 108.554962,117.942543 
	C112.080750,125.321541 107.487259,135.732361 98.247078,139.559692 
	C99.869194,134.610870 101.491302,129.662048 103.293213,124.379387 
z"/>
<path fill="#583460" opacity="1.000000" stroke="none" 
	d="
M125.791077,140.434189 
	C122.337692,142.440643 118.822227,144.988327 115.010880,145.558640 
	C111.168663,146.133560 107.032661,144.745026 102.384293,144.132248 
	C107.650734,138.719040 119.774078,136.983978 125.791077,140.434189 
z"/>
<path fill="#6F2F55" opacity="1.000000" stroke="none" 
	d="
M89.006790,107.869804 
	C89.007767,109.131096 89.008736,110.392387 88.996796,112.134079 
	C87.862869,112.527313 86.741852,112.440155 84.916283,112.298218 
	C84.916283,114.217178 85.310112,116.098465 84.797005,117.686760 
	C84.352341,119.063217 82.879501,120.107506 81.861107,121.298607 
	C80.845345,120.115494 79.043800,118.988571 78.954453,117.739204 
	C78.626755,113.157196 78.868195,108.534492 79.348938,103.512260 
	C81.494148,103.402840 83.185806,103.708267 84.960754,104.371063 
	C86.364952,105.775566 87.685867,106.822685 89.006790,107.869804 
z"/>
<path fill="#7C4065" opacity="1.000000" stroke="none" 
	d="
M73.958572,107.621223 
	C74.545235,113.417854 71.649483,112.837791 67.786682,111.309685 
	C67.786682,106.297523 67.624725,101.164108 67.909920,96.055664 
	C67.974579,94.897552 69.591301,93.826096 70.493614,92.714760 
	C71.608856,93.714302 73.558426,94.617249 73.687386,95.730995 
	C74.124359,99.504784 73.916893,103.353188 73.958572,107.621223 
z"/>
<path fill="#92A548" opacity="1.000000" stroke="none" 
	d="
M77.020248,75.890961 
	C76.060356,71.977615 75.389580,68.368729 74.516136,63.669495 
	C75.554817,62.639828 77.381912,60.828579 79.209015,59.017334 
	C80.809494,61.123676 82.409973,63.230022 84.005615,65.339630 
	C78.970802,69.733383 78.844849,71.199997 83.139282,76.598892 
	C81.195976,76.464401 79.252670,76.329918 77.020248,75.890961 
z"/>
<path fill="#A6B950" opacity="1.000000" stroke="none" 
	d="
M75.368416,2.599560 
	C79.400795,4.061917 79.392174,7.351839 77.926064,9.860811 
	C76.373947,12.516977 73.509804,14.406469 71.218719,16.630825 
	C70.320702,15.452423 68.705681,14.306067 68.651321,13.089952 
	C68.439110,8.342233 70.767899,4.852554 75.368416,2.599560 
z"/>
<path fill="#8FA35A" opacity="1.000000" stroke="none" 
	d="
M140.261902,76.669037 
	C139.291550,76.706367 138.541901,76.402725 137.488617,76.075150 
	C136.132660,71.217072 134.905441,66.410942 134.124115,61.533386 
	C133.855316,59.855347 134.699341,57.999043 135.035004,56.224174 
	C136.456558,57.542526 138.875671,58.699631 139.119522,60.208344 
	C139.977539,65.516342 140.088318,70.945122 140.261902,76.669037 
z"/>
<path fill="#A8BB4F" opacity="1.000000" stroke="none" 
	d="
M41.063965,48.929398 
	C37.728542,50.255062 34.752216,51.433395 31.775892,52.611725 
	C31.574934,52.191525 31.373976,51.771320 31.173018,51.351120 
	C36.135349,46.308144 42.043697,42.685604 48.953796,40.834518 
	C50.134502,40.518230 51.704739,41.656044 53.095024,42.122108 
	C52.165886,43.322636 51.481640,45.033817 50.258152,45.620564 
	C47.452904,46.965870 44.384579,47.762611 41.063965,48.929398 
z"/>
<path fill="#91A648" opacity="1.000000" stroke="none" 
	d="
M70.947433,67.593231 
	C71.053345,69.340454 70.989761,70.675400 71.112717,71.992935 
	C71.369743,74.747139 70.847740,77.570091 67.713249,77.456207 
	C65.110260,77.361641 62.559200,75.674614 60.006798,74.639603 
	C59.787209,74.550560 59.611153,74.058365 59.616264,73.756866 
	C59.665791,70.834290 59.758385,67.912445 59.838680,64.990387 
	C64.260269,65.358665 62.158588,69.389290 63.462814,71.514687 
	C64.049782,72.471222 64.296074,73.636810 64.913483,75.285904 
	C70.380821,72.543365 66.284309,67.560410 68.419785,63.373451 
	C69.418213,64.926529 70.140327,66.049805 70.947433,67.593231 
z"/>
<path fill="#8DA24E" opacity="1.000000" stroke="none" 
	d="
M9.104855,80.539284 
	C8.330979,80.740837 7.595949,80.482666 6.468426,80.201546 
	C3.105179,71.721375 4.685798,61.259842 10.643445,56.431313 
	C10.104512,64.929291 9.624106,72.504425 9.104855,80.539284 
z"/>
<path fill="#A3B84B" opacity="1.000000" stroke="none" 
	d="
M105.369995,49.529152 
	C101.472618,48.034840 97.842163,46.862637 94.406548,45.270096 
	C93.359024,44.784534 92.847778,43.142025 92.090935,42.029373 
	C93.260963,41.657639 94.501038,40.823833 95.589691,40.988861 
	C102.866447,42.091949 108.414665,46.002747 112.329750,52.610363 
	C110.123772,51.636814 107.917786,50.663261 105.369995,49.529152 
z"/>
<path fill="#DA6E41" opacity="1.000000" stroke="none" 
	d="
M94.511002,34.422752 
	C91.867928,35.894768 89.478401,37.091084 87.088882,38.287399 
	C86.522057,37.826565 85.955231,37.365734 85.388405,36.904903 
	C86.536842,34.483852 87.140320,31.440310 88.990356,29.820675 
	C90.762367,28.269346 93.828949,28.196747 96.326569,27.474251 
	C95.805893,29.698519 95.285225,31.922785 94.511002,34.422752 
z"/>
<path fill="#98A950" opacity="1.000000" stroke="none" 
	d="
M87.311111,68.374496 
	C90.241905,64.034035 93.984032,64.260315 97.606476,68.826424 
	C96.924576,69.233803 96.208015,70.034081 95.638756,69.940292 
	C92.454926,69.415787 91.361656,70.969315 90.520592,73.806183 
	C90.047295,75.402596 88.137169,76.573021 86.874329,77.935364 
	C86.644226,76.151443 86.225494,74.365204 86.247437,72.584389 
	C86.263214,71.303871 86.867096,70.030602 87.311111,68.374496 
z"/>
<path fill="#95AC63" opacity="1.000000" stroke="none" 
	d="
M15.937705,105.740921 
	C15.180042,105.618095 14.605416,105.189728 13.999593,104.471870 
	C16.543003,99.760796 18.891512,95.179863 21.828007,91.013321 
	C22.725805,89.739449 25.238430,89.603668 27.011536,88.946701 
	C26.383636,90.744156 26.125423,92.809135 25.055916,94.287010 
	C22.267260,98.140442 19.123110,101.736610 15.937705,105.740921 
z"/>
<path fill="#97AC6E" opacity="1.000000" stroke="none" 
	d="
M131.668304,103.068893 
	C131.293732,104.045219 130.556168,104.989639 129.496826,105.992233 
	C127.202179,102.884583 125.329651,99.649330 123.209953,96.585075 
	C122.285103,95.248108 120.525711,94.444664 119.752586,93.059891 
	C119.091599,91.875954 119.298172,90.207664 119.121017,88.753609 
	C120.432312,89.055595 122.304588,88.916672 122.952003,89.740417 
	C125.081497,92.449875 126.785568,95.496727 128.615356,98.437424 
	C129.553360,99.944885 130.411240,101.502205 131.668304,103.068893 
z"/>
<path fill="#7E3B63" opacity="1.000000" stroke="none" 
	d="
M84.877472,104.013695 
	C83.185806,103.708267 81.494148,103.402840 79.435898,103.051376 
	C78.993095,102.193207 78.858253,101.381683 78.849831,100.568848 
	C78.773666,93.213615 78.780136,93.213547 86.611954,92.119690 
	C86.699516,93.614853 86.391670,95.026749 85.867981,97.132584 
	C85.393913,99.888924 85.135696,101.951309 84.877472,104.013695 
z"/>
<path fill="#9DAE56" opacity="1.000000" stroke="none" 
	d="
M96.841446,79.890221 
	C98.068291,76.450233 99.195740,73.366753 100.584503,70.405823 
	C100.880791,69.774124 102.119812,69.331642 102.938187,69.309616 
	C103.319847,69.299339 104.221207,70.682388 104.056511,71.124573 
	C102.751572,74.628273 101.257477,78.062538 99.682182,81.453423 
	C99.661858,81.497177 97.824585,80.696846 96.841446,79.890221 
z"/>
<path fill="#86718B" opacity="1.000000" stroke="none" 
	d="
M84.835274,149.467682 
	C85.205429,149.920135 85.149826,150.217880 85.028938,150.732819 
	C82.596092,150.960892 80.170158,150.960892 77.744217,150.960892 
	C77.431671,151.430054 77.119125,151.899216 76.806580,152.368362 
	C78.466492,152.998352 80.126404,153.628342 81.786308,154.258331 
	C81.395599,154.657684 81.004890,155.057053 80.614174,155.456406 
	C76.642456,154.419922 72.670746,153.383423 68.393997,152.267319 
	C72.285660,150.627197 76.215675,148.970917 80.452904,147.155960 
	C80.985527,146.982681 81.210930,146.968094 81.769165,147.016998 
	C82.890625,147.828308 83.679253,148.576080 84.835274,149.467682 
z"/>
<path fill="#784870" opacity="1.000000" stroke="none" 
	d="
M58.897408,161.316101 
	C57.696880,163.065643 56.547668,164.632736 55.028912,165.645813 
	C54.718578,165.852814 52.306892,164.091492 52.143429,163.038803 
	C51.937180,161.710587 53.043415,160.178574 53.583450,158.734467 
	C55.328331,159.468918 57.073212,160.203369 58.897408,161.316101 
z"/>
<path fill="#A4B869" opacity="1.000000" stroke="none" 
	d="
M18.689274,58.153259 
	C19.135918,58.509399 19.271894,59.009720 19.595636,59.689262 
	C18.169758,64.333855 16.556116,68.799225 14.942475,73.264587 
	C14.320940,73.029320 13.699405,72.794044 13.077869,72.558777 
	C13.827952,67.488014 15.044538,62.562675 18.689274,58.153259 
z"/>
<path fill="#634167" opacity="1.000000" stroke="none" 
	d="
M89.337631,158.387238 
	C91.158409,159.434418 92.886909,160.439957 93.890511,161.932831 
	C94.161583,162.336075 92.452301,164.778503 91.249985,165.241974 
	C90.275742,165.617538 87.576012,164.402359 87.586967,163.938705 
	C87.629784,162.125473 88.444893,160.330490 89.337631,158.387238 
z"/>
<path fill="#7C4766" opacity="1.000000" stroke="none" 
	d="
M72.314789,83.623322 
	C72.969414,85.453064 73.299545,87.151093 73.629684,88.849121 
	C72.133911,89.134476 70.545303,89.843826 69.177597,89.544327 
	C68.372154,89.367950 67.220474,86.836586 67.416939,86.655090 
	C68.765007,85.409668 70.428429,84.505592 72.314789,83.623322 
z"/>
<path fill="#7F4B77" opacity="1.000000" stroke="none" 
	d="
M139.091309,110.955521 
	C140.545746,112.321770 141.818527,113.620827 142.540298,115.175667 
	C142.691269,115.500916 140.872986,117.329803 139.847519,117.444984 
	C138.832932,117.558922 136.678818,116.203346 136.750809,115.802216 
	C137.050781,114.130966 138.001617,112.576538 139.091309,110.955521 
z"/>
<path fill="#794A6D" opacity="1.000000" stroke="none" 
	d="
M5.972994,111.211639 
	C7.362370,112.608299 8.600289,113.946426 9.250431,115.526421 
	C9.399750,115.889305 7.580417,117.644211 6.573525,117.736374 
	C5.577136,117.827568 3.489876,116.436302 3.570205,116.025986 
	C3.896013,114.361786 4.871920,112.824852 5.972994,111.211639 
z"/>
<path fill="#ABBC5A" opacity="1.000000" stroke="none" 
	d="
M127.147263,49.863197 
	C128.151550,48.171803 129.265503,46.843098 130.379440,45.514397 
	C131.332855,46.317390 132.762756,46.960102 133.102341,47.969582 
	C133.425690,48.930828 132.555176,51.299099 132.305588,51.285503 
	C130.608475,51.193050 128.936798,50.634159 127.147263,49.863197 
z"/>
<path fill="#AEC060" opacity="1.000000" stroke="none" 
	d="
M16.897404,46.057312 
	C17.207991,47.918297 17.490498,49.668797 17.040205,51.204414 
	C16.923532,51.602303 14.261016,51.781788 13.236009,51.215012 
	C12.442417,50.776196 11.768797,48.242134 12.098989,47.982155 
	C13.367118,46.983688 15.061108,46.526096 16.897404,46.057312 
z"/>
<path fill="#9DB15F" opacity="1.000000" stroke="none" 
	d="
M125.007736,61.352760 
	C125.881622,60.981731 126.801147,60.962383 128.183807,60.910351 
	C129.749435,64.278954 130.851913,67.680237 131.954407,71.081512 
	C131.429672,71.273941 130.904938,71.466370 130.380188,71.658798 
	C128.604584,68.340675 126.828972,65.022560 125.007736,61.352760 
z"/>
<path fill="#7A4F78" opacity="1.000000" stroke="none" 
	d="
M132.834106,116.848824 
	C134.293533,119.826073 133.132172,121.445686 130.463974,121.497986 
	C129.688019,121.513191 128.121063,119.433250 128.220520,118.444923 
	C128.484985,115.816948 130.322388,115.365021 132.834106,116.848824 
z"/>
<path fill="#81355D" opacity="1.000000" stroke="none" 
	d="
M87.470093,25.832525 
	C85.915939,25.493917 84.632607,24.912216 82.023453,23.729561 
	C84.531914,21.812464 86.364288,20.412066 88.561485,19.005104 
	C88.531174,21.195503 88.136040,23.392467 87.470093,25.832525 
z"/>
<path fill="#DEDEEC" opacity="1.000000" stroke="none" 
	d="
M84.960754,104.371063 
	C85.135696,101.951309 85.393913,99.888924 85.849167,97.497032 
	C88.017982,98.279739 91.271713,99.074570 91.645065,100.582527 
	C92.139107,102.578011 90.379150,105.131546 89.297363,107.657516 
	C87.685867,106.822685 86.364952,105.775566 84.960754,104.371063 
z"/>
</svg>